<svg xmlns="http://www.w3.org/2000/svg" viewBox="0 0 100 100">
  <path fill="#2563EB" fill-rule="evenodd" d="M 42.69 11.69 L 44.47 1.31 L 55.53 1.31 L 57.31 11.69 L 66.61 14.71 L 74.14 7.36 L 83.09 13.86 L 78.43 23.30 L 84.18 31.21 L 94.60 29.70 L 98.01 40.21 L 88.69 45.11 L 88.69 54.89 L 98.01 59.79 L 94.60 70.30 L 84.18 68.79 L 78.43 76.70 L 83.09 86.14 L 74.14 92.64 L 66.61 85.29 L 57.31 88.31 L 55.53 98.69 L 44.47 98.69 L 42.69 88.31 L 33.39 85.29 L 25.86 92.64 L 16.91 86.14 L 21.57 76.70 L 15.82 68.79 L 5.40 70.30 L 1.99 59.79 L 11.31 54.89 L 11.31 45.11 L 1.99 40.21 L 5.40 29.70 L 15.82 31.21 L 21.57 23.30 L 16.91 13.86 L 25.86 7.36 L 33.39 14.71 Z M 50 35 a 15 15 0 1 0 0.01 0 Z"/>
</svg>